<svg xmlns="http://www.w3.org/2000/svg" width="24" height="24" viewBox="0 0 24 24">
    <g fill="none" fill-rule="evenodd">
        <path fill="#000" d="M0 0L24 0 24 24 0 24z"/>
        <path fill="#FFF" fill-rule="nonzero" d="M5.162 13.05c-.108-.11-.162-.275-.162-.385 0-.11.054-.275.162-.385l.753-.77c.216-.22.539-.22.754 0l.054.055 2.962 3.245c.107.11.269.11.377 0l7.215-7.645h.054c.215-.22.538-.22.754 0l.753.77c.216.22.216.55 0 .77l-8.615 9.13c-.108.11-.215.165-.377.165-.161 0-.27-.055-.377-.165l-4.2-4.62-.107-.165z"/>
    </g>
</svg>
